<?xml version="1.0" standalone="no"?>
<!DOCTYPE svg PUBLIC "-//W3C//DTD SVG 20010904//EN"
 "http://www.w3.org/TR/2001/REC-SVG-20010904/DTD/svg10.dtd">
<svg version="1.0" xmlns="http://www.w3.org/2000/svg"
 width="201.000000pt" height="212.000000pt" viewBox="0 0 201.000000 212.000000"
 preserveAspectRatio="xMidYMid meet">

<g transform="translate(0.000000,212.000000) scale(0.100000,-0.100000)"
fill="#000000" stroke="none">
<path d="M853 1644 c-125 -67 -143 -85 -108 -114 13 -11 31 -5 104 34 50 25
94 46 100 46 7 0 11 -35 11 -98 0 -115 15 -145 54 -106 12 12 16 37 16 110 0
52 2 94 5 94 3 0 46 -20 96 -46 74 -36 93 -43 105 -33 35 29 12 52 -111 116
-66 34 -127 62 -135 62 -8 0 -70 -29 -137 -65z"/>
<path d="M485 1452 l-130 -67 -3 -150 c-2 -130 0 -151 14 -162 12 -9 22 -9 35
-2 17 9 19 23 19 119 0 61 3 110 6 110 4 0 47 -18 97 -41 95 -43 122 -43 122
-3 0 14 -24 31 -88 63 l-89 44 91 49 c50 27 91 55 91 63 0 11 -26 46 -33 45
-1 -1 -60 -31 -132 -68z"/>
<path d="M1344 1495 c-11 -28 5 -44 86 -85 44 -22 80 -43 80 -46 0 -3 -38 -23
-85 -44 -75 -34 -85 -42 -85 -65 0 -14 7 -28 15 -32 9 -3 56 13 106 36 49 22
92 41 94 41 3 0 5 -47 5 -104 0 -82 3 -108 16 -120 19 -20 28 -20 43 -2 8 9
11 61 9 162 l-3 149 -115 62 c-117 63 -156 75 -166 48z"/>
<path d="M740 1205 c-22 -27 -1 -46 110 -97 l110 -51 0 -118 c0 -104 2 -119
18 -128 38 -20 47 1 52 129 l5 122 105 49 c96 44 105 51 105 76 0 18 -6 29
-16 31 -9 2 -66 -20 -127 -48 l-111 -51 -107 51 c-117 55 -126 57 -144 35z"/>
<path d="M362 948 c-13 -13 -17 -285 -4 -304 4 -6 63 -39 130 -74 97 -50 127
-62 140 -53 38 23 19 47 -75 97 -51 28 -93 53 -93 56 1 3 41 24 91 47 94 44
112 64 86 91 -15 15 -24 12 -109 -26 -51 -23 -96 -42 -100 -42 -5 0 -8 44 -8
98 0 95 -8 122 -35 122 -6 0 -16 -5 -23 -12z"/>
<path d="M1572 948 c-8 -8 -12 -45 -12 -110 0 -54 -3 -98 -7 -98 -3 0 -45 18
-93 40 -93 43 -120 44 -120 3 0 -21 13 -30 98 -70 l97 -45 -98 -49 c-91 -46
-98 -52 -95 -77 2 -16 10 -28 21 -30 9 -2 73 26 142 63 l126 66 -3 157 c-3
149 -4 157 -23 160 -11 1 -26 -3 -33 -10z"/>
<path d="M967 623 c-4 -3 -7 -53 -7 -110 0 -56 -2 -103 -5 -103 -3 0 -48 21
-100 47 -90 45 -96 47 -112 30 -27 -27 -9 -44 125 -115 l122 -64 127 65 c110
56 128 69 131 91 6 45 -23 43 -124 -7 l-94 -47 0 98 c0 63 -4 102 -12 110 -13
13 -41 16 -51 5z"/>
</g>
</svg>
